<svg width="44" height="44" viewBox="0 0 44 44" fill="none" xmlns="http://www.w3.org/2000/svg">
<g clip-path="url(#clip0_1_464)">
<path d="M35.9685 9.0315C44.0315 18.4245 41.3765 32.8615 30.765 39.04C19.338 45.6935 4.05054 39.165 1.36254 26.212C-2.88096 5.7655 22.5095 -6.6475 35.9685 9.0315ZM20.7495 4.3505C8.51004 4.3415 0.0190372 17.115 4.72604 28.499C6.91154 33.785 12.5005 38.659 18.376 38.999C24.534 39.355 30.4515 36.859 29.593 29.682C28.3525 19.312 14.1485 24.574 13.401 14.274C13.0265 9.108 15.8795 5.632 20.7495 4.351V4.3505ZM19.988 10.263C16.9455 10.685 17.098 15.6985 20.768 15.343C24.0985 15.0205 23.659 9.7535 19.988 10.263Z" fill="#2B5371"/>
<path d="M20.038 28.413C24.3235 27.8195 24.134 34.2535 20.0475 33.6775C17.1835 33.274 17.1975 28.8065 20.038 28.413Z" fill="#2B5371"/>
</g>
<defs>
<clipPath id="clip0_1_464">
<rect width="42" height="44" fill="white"/>
</clipPath>
</defs>
</svg>
